# xmcd CD database file
#
# Track frame offsets:
#	150
#	6289
#	21590
#	49342
#	79419
#	101096
#	123898
#	141000
#	163652
#	178129
#	204531
#	231833
#	254410
#	278487
#
# Disc length: 3877 seconds
#
# Revision: 0
# Processed by: cddbd v1.4PL0 Copyright (c) Steve Scherf et al.
# Submitted via: CDex 1.50Beta7
#
DISCID=c70f230e
DTITLE=Dado Moroni - With Duke In Mind
DYEAR=1900
DGENRE=Jazz
TTITLE0=What Am  I  Here For
TTITLE1=There Was Nobody Looking
TTITLE2=Main Stem
TTITLE3=All Too Soon
TTITLE4=Pleadin' For Love
TTITLE5=So
TTITLE6=Black Beauty
TTITLE7=Day Dream
TTITLE8=Cottontail
TTITLE9=Isfahan
TTITLE10=Caravan
TTITLE11=Warm Valley
TTITLE12=Don't Get Around Much Anymore
TTITLE13=What Am  I  Here For
EXTD=
EXTT0=
EXTT1=
EXTT2=
EXTT3=
EXTT4=
EXTT5=
EXTT6=
EXTT7=
EXTT8=
EXTT9=
EXTT10=
EXTT11=
EXTT12=
EXTT13=
PLAYORDER=
